<svg width="68" height="56" viewBox="0 0 68 56" fill="none" xmlns="http://www.w3.org/2000/svg">
<path d="M67.3014 24.8336L61.6019 21.9844L67.3014 19.1407C67.4834 19.05 67.6365 18.9103 67.7435 18.7374C67.8506 18.5645 67.9073 18.3651 67.9073 18.1618C67.9073 17.9584 67.8506 17.7591 67.7435 17.5861C67.6365 17.4132 67.4834 17.2736 67.3014 17.1829L34.4889 0.776609C34.3371 0.700748 34.1697 0.661255 34 0.661255C33.8303 0.661255 33.6629 0.700748 33.5111 0.776609L0.698578 17.1829C0.51657 17.2736 0.363456 17.4132 0.256432 17.5861C0.149408 17.7591 0.0927124 17.9584 0.0927124 18.1618C0.0927124 18.3651 0.149408 18.5645 0.256432 18.7374C0.363456 18.9103 0.51657 19.05 0.698578 19.1407L6.39811 21.9844L0.698578 24.8336C0.51676 24.9245 0.363856 25.0642 0.257019 25.2371C0.150182 25.41 0.0936391 25.6093 0.0937338 25.8125V30.1875C0.0926193 30.3917 0.148682 30.5921 0.255575 30.7661C0.362469 30.9401 0.515926 31.0807 0.698578 31.1719L6.39811 34.0157L0.698578 36.8594C0.51657 36.9501 0.363456 37.0898 0.256432 37.2627C0.149408 37.4356 0.0927124 37.635 0.0927124 37.8383C0.0927124 38.0417 0.149408 38.241 0.256432 38.4139C0.363456 38.5869 0.51657 38.7265 0.698578 38.8172L33.5111 55.2235C33.6629 55.2993 33.8303 55.3388 34 55.3388C34.1697 55.3388 34.3371 55.2993 34.4889 55.2235L67.3014 38.8172C67.4834 38.7265 67.6365 38.5869 67.7435 38.4139C67.8506 38.241 67.9073 38.0417 67.9073 37.8383C67.9073 37.635 67.8506 37.4356 67.7435 37.2627C67.6365 37.0898 67.4834 36.9501 67.3014 36.8594L61.6019 34.0157L67.3014 31.1719C67.484 31.0807 67.6375 30.9401 67.7444 30.7661C67.8513 30.5921 67.9073 30.3917 67.9062 30.1875V25.8125C67.9063 25.6093 67.8498 25.41 67.743 25.2371C67.6361 25.0642 67.4832 24.9245 67.3014 24.8336ZM34 2.97286L64.3669 18.1563L34 33.3397L3.63311 18.1563L34 2.97286ZM33.5111 35.5469C33.6629 35.6228 33.8303 35.6623 34 35.6623C34.1697 35.6623 34.3371 35.6228 34.4889 35.5469L59.1562 23.2072L64.3669 25.8125L34 40.996L3.63311 25.8125L8.84373 23.2072L33.5111 35.5469ZM2.28123 27.5822L32.9062 42.8947V44.8241L2.28123 29.5116V27.5822ZM64.3669 37.8438L34 53.0272L3.63311 37.8438L8.84373 35.2385L33.5111 47.5782C33.6629 47.654 33.8303 47.6935 34 47.6935C34.1697 47.6935 34.3371 47.654 34.4889 47.5782L59.1562 35.2385L64.3669 37.8438ZM35.0937 44.8241V42.8947L65.7187 27.5822V29.5116L35.0937 44.8241Z" fill="#57ADE4"/>
</svg>
